<svg xmlns="http://www.w3.org/2000/svg" x="0px" y="0px"
width="25" height="25"
viewBox="0 0 172 172"
style=" fill:#000000;"><g fill="none" fill-rule="nonzero" stroke="none" stroke-width="1" stroke-linecap="butt" stroke-linejoin="miter" stroke-miterlimit="10" stroke-dasharray="" stroke-dashoffset="0" font-family="none" font-weight="none" font-size="none" text-anchor="none" style="mix-blend-mode: normal"><path d="M0,172v-172h172v172z" fill="none"></path><g><path d="M150.5,161.25l-32.25,-25.08692l3.58333,10.75358h-86c-9.89358,0 -17.91667,-8.0195 -17.91667,-17.91667v-93.16667c0,-9.89717 8.02308,-17.91667 17.91667,-17.91667h96.75c9.89717,0 17.91667,8.0195 17.91667,17.91667z" fill="#324df1"></path><path d="M116.78083,58.19333c0,0 -9.31667,-7.2025 -20.35333,-8.02667l-0.9675,1.97083c9.96167,2.40083 14.5125,5.87667 19.27833,10.14083c-8.20583,-4.1925 -16.34,-8.52833 -30.53,-8.52833c-14.19,0 -22.32417,4.33583 -30.53,8.52833c4.76583,-4.26417 10.2125,-8.13417 19.27833,-10.14083l-0.9675,-1.97083c-11.57417,1.11083 -20.35333,8.02667 -20.35333,8.02667c0,0 -10.4275,15.01417 -12.21917,44.36167c10.535,12.04 26.48083,12.11167 26.48083,12.11167l3.29667,-4.4075c-5.62583,-1.935 -12.04,-5.41083 -17.55833,-11.7175c6.59333,4.945 16.51917,8.95833 32.5725,8.95833c16.05333,0 25.97917,-4.01333 32.5725,-8.95833c-5.51833,6.30667 -11.9325,9.7825 -17.55833,11.7175l3.29667,4.4075c0,0 15.94583,-0.07167 26.48083,-12.11167c-1.79167,-29.3475 -12.21917,-44.36167 -12.21917,-44.36167zM71.66667,96.75c-3.94167,0 -7.16667,-4.01333 -7.16667,-8.95833c0,-4.945 3.225,-8.95833 7.16667,-8.95833c3.94167,0 7.16667,4.01333 7.16667,8.95833c0,4.945 -3.225,8.95833 -7.16667,8.95833zM96.75,96.75c-3.94167,0 -7.16667,-4.01333 -7.16667,-8.95833c0,-4.945 3.225,-8.95833 7.16667,-8.95833c3.94167,0 7.16667,4.01333 7.16667,8.95833c0,4.945 -3.225,8.95833 -7.16667,8.95833z" fill="#ffffff"></path></g></g></svg>